<svg xmlns:dc="http://purl.org/dc/elements/1.1/" xmlns:cc="http://creativecommons.org/ns#" xmlns:rdf="http://www.w3.org/1999/02/22-rdf-syntax-ns#" xmlns:svg="http://www.w3.org/2000/svg" xmlns="http://www.w3.org/2000/svg" xmlns:sodipodi="http://sodipodi.sourceforge.net/DTD/sodipodi-0.dtd" xmlns:inkscape="http://www.inkscape.org/namespaces/inkscape" viewBox="0 0 24 30" version="1.1" x="0px" y="0px"><path  d="m 11.54688,3.0566409 a 1.0000999,1.0000999 0 0 0 -0.19532,0.01367 c -4.32793,0.725307 -7.50993,4.484758 -7.51172,8.8730471 0,4.958719 4.04129,9.000001 9,9 2.78426,-0.0041 5.41255,-1.297503 7.11328,-3.501953 a 1.0000999,1.0000999 0 0 0 -0.95898,-1.597656 c -0.38097,0.06481 -0.76786,0.09846 -1.1543,0.09961 -3.87717,1e-6 -6.99892,-3.121135 -7,-6.9980471 l 0,-0.002 c 0.003,-1.5479 0.51831,-3.05013 1.4668,-4.273437 a 1.0000999,1.0000999 0 0 0 -0.75976,-1.613281 z m -2.1211,2.792968 c -0.36493,0.987107 -0.5839,2.025304 -0.58594,3.091797 a 1.0000999,1.0000999 0 0 0 0,0.002 c 0,4.5104771 3.39799,8.1027831 7.73438,8.7441411 -1.12095,0.731948 -2.36218,1.253459 -3.73438,1.255859 -3.87783,1e-6 -7,-3.122162 -7,-7 0.001,-2.5989871 1.42586,-4.8870351 3.58594,-6.0937501 z" fill="#fff" /></svg>