<svg xmlns="http://www.w3.org/2000/svg" viewBox="0 0 24 30"><path
 fill="#fff" d="M11.9844-.0078A1.0001 1.0001 0 0011 1.0078v3a1.0001 1.0001 0 102 0v-3a1.0001 1.0001 0 00-1.0156-1.0156zM4.2168 3.2168a1.0001 1.0001 0 00-.6973 1.7168l2.1211 2.121a1.0001 1.0001 0 101.414-1.414l-2.121-2.121a1.0001 1.0001 0 00-.7168-.3028zm15.5371 0a1.0001 1.0001 0 00-.6875.3027l-2.121 2.1211a1.0001 1.0001 0 101.414 1.414l2.121-2.121a1.0001 1.0001 0 00-.7265-1.7168zM12 6.0078c-3.3019 0-6 2.6981-6 6s2.6981 6 6 6 6-2.6981 6-6-2.6981-6-6-6zm0 2c2.221 0 4 1.779 4 4s-1.779 4-4 4-4-1.779-4-4 1.779-4 4-4zM1.0078 11a1.0001 1.0001 0 100 2h3a1.0001 1.0001 0 100-2h-3zm18.9844 0a1.0001 1.0001 0 100 2h3a1.0001 1.0001 0 100-2h-3zm-13.664 5.6426a1.0001 1.0001 0 00-.6876.3027l-2.121 2.1211a1.0001 1.0001 0 101.414 1.414l2.121-2.121a1.0001 1.0001 0 00-.7265-1.7168zm11.3124 0a1.0001 1.0001 0 00-.6953 1.7168l2.1211 2.121a1.0001 1.0001 0 101.414-1.414l-2.121-2.121a1.0001 1.0001 0 00-.7188-.3028zm-5.6562 2.336A1.0001 1.0001 0 0011 19.9921v3a1.0001 1.0001 0 102 0v-3a1.0001 1.0001 0 00-1.0156-1.0137z" color="#fff" font-weight="400" font-family="sans-serif" overflow="visible"/></svg>